<svg width="321" height="50" viewBox="0 0 321 50" fill="none" xmlns="http://www.w3.org/2000/svg">
<path d="M0 50C6.6711 50 13.2767 48.7067 19.4401 46.194C25.6033 43.6813 31.2034 39.9983 35.9205 35.3554C38.2836 33.0294 40.402 30.4853 42.2488 27.7628L29.3857 50H54.6L66.5739 29.2999C66.3347 29.8175 66.1042 30.3396 65.8828 30.8658C63.3299 36.9321 62.0159 43.4339 62.0159 50H82.2253C82.2253 46.0461 83.0165 42.1309 84.5538 38.4779C86.0911 34.825 88.3444 31.5059 91.1849 28.71C94.0254 25.9141 97.3976 23.6964 101.109 22.1832C104.82 20.6702 108.798 19.8914 112.815 19.8914V0C106.144 0 99.5385 1.29328 93.3752 3.80601C87.2119 6.31874 81.6118 10.0017 76.8947 14.6447C74.7677 16.7382 72.839 19.0085 71.1281 21.4266L83.5222 0H58.3079L45.8198 21.5892C46.2125 20.7818 46.5836 19.9631 46.9324 19.1342C49.4853 13.0679 50.7993 6.56609 50.7993 0H30.5899C30.5899 3.95392 29.7987 7.86912 28.2614 11.5221C26.7241 15.175 24.4708 18.4941 21.6304 21.29C18.7898 24.0859 15.4176 26.3036 11.7063 27.8167C7.99487 29.3298 4.01713 30.1086 0 30.1086V50Z" fill="white"/>
<path d="M167.786 18.25C167.786 32.75 161.701 40 149.53 40C145.64 40 142.338 39.1333 139.622 37.4C136.906 35.6667 134.861 33.2833 133.486 30.25C132.111 27.2167 131.424 23.7333 131.424 19.8C131.424 15.9 132.094 12.4667 133.436 9.5C134.81 6.53333 136.856 4.21666 139.571 2.55C142.287 0.85 145.59 0 149.479 0C153.67 0 157.241 1.01667 160.192 3.05C163.176 5.05 165.707 8.3 167.786 12.8L160.292 17.4C159.454 15.1 158.616 13.3333 157.778 12.1C156.973 10.8333 155.917 9.91667 154.609 9.35C153.335 8.78333 151.625 8.5 149.479 8.5C146.428 8.5 144.081 9.45 142.438 11.35C140.795 13.25 139.974 16.0667 139.974 19.8C139.974 27.5333 143.159 31.4333 149.53 31.5C151.709 31.4667 153.587 30.9833 155.162 30.05C156.772 29.1167 158.012 27.7 158.884 25.8H147.468V18.3L160.292 18.25H167.786Z" fill="white"/>
<path d="M205.74 9.5V40H197.19L198.699 29.35H197.693C197.29 32.8167 196.553 35.3833 195.48 37.05C194.44 38.6833 193.15 39.7167 191.607 40.15C190.098 40.5833 188.036 40.8 185.421 40.8C182.37 40.8 179.855 40.1833 177.877 38.95C175.932 37.6833 174.457 35.6333 173.451 32.8C172.479 29.9667 171.993 26.2 171.993 21.5V9.5H180.241V21.5C180.241 25.3 180.828 28.05 182.001 29.75C183.208 31.45 185.354 32.3 188.439 32.3C191.356 32.3 193.535 31.35 194.977 29.45C196.452 27.55 197.19 24.9 197.19 21.5V9.5H205.74Z" fill="white"/>
<path d="M244.138 0V40H235.588L236.091 29.2H235.337C234.398 36.9 230.492 40.75 223.618 40.75C221.271 40.75 219.109 40.0667 217.13 38.7C215.186 37.3333 213.643 35.5167 212.503 33.25C211.363 30.9833 210.793 28.5833 210.793 26.05C210.793 22.8833 211.347 20.0333 212.453 17.5C213.593 14.9667 215.135 12.9833 217.08 11.55C219.058 10.1167 221.238 9.4 223.618 9.4C226.502 9.4 228.966 10.3167 231.011 12.15C233.09 13.9833 234.465 16.6333 235.135 20.1H236.091L235.588 9.5V0H244.138ZM226.736 32.3C228.245 32.3 229.62 31.95 230.861 31.25C232.101 30.5167 233.073 29.5833 233.778 28.45C234.482 27.3167 234.834 26.1833 234.834 25.05C234.834 23.85 234.482 22.7333 233.778 21.7C233.073 20.6667 232.101 19.85 230.861 19.25C229.654 18.65 228.279 18.35 226.736 18.35C224.423 18.35 222.562 19.0333 221.154 20.4C219.779 21.7333 219.092 23.45 219.092 25.55C219.092 26.7833 219.41 27.9167 220.047 28.95C220.684 29.9833 221.573 30.8 222.713 31.4C223.887 32 225.228 32.3 226.736 32.3Z" fill="white"/>
<path d="M266.403 50C262.178 50 258.741 49.4333 256.093 48.3C253.477 47.2 251.164 45.3 249.152 42.6L255.338 38.75C256.746 40.4167 258.255 41.5333 259.865 42.1C261.508 42.7 263.687 43 266.403 43C268.414 43 270.158 42.5667 271.633 41.7C273.109 40.8333 274.249 39.6833 275.053 38.25C275.891 36.8167 276.378 35.2333 276.512 33.5L276.864 29.2H276.109C275.372 33.4 273.964 36.25 271.885 37.75C269.839 39.25 267.342 40 264.391 40C262.279 40 260.233 39.35 258.255 38.05C256.277 36.7167 254.668 34.9 253.427 32.6C252.186 30.2667 251.566 27.6667 251.566 24.8C251.566 22.0333 252.136 19.4833 253.276 17.15C254.416 14.8167 255.958 12.9667 257.903 11.6C259.881 10.2 262.044 9.5 264.391 9.5C267.274 9.5 269.739 10.4 271.784 12.2C273.863 14 275.238 16.6333 275.908 20.1H276.864L276.361 9.5H284.911V29.5C284.911 36.8 283.218 42.0333 279.831 45.2C276.445 48.4 271.969 50 266.403 50ZM267.509 32.3C268.884 32.3 270.192 31.9667 271.432 31.3C272.706 30.6 273.712 29.6833 274.45 28.55C275.221 27.3833 275.606 26.1333 275.606 24.8C275.606 23.5333 275.221 22.4167 274.45 21.45C273.712 20.45 272.723 19.6833 271.482 19.15C270.242 18.6167 268.917 18.35 267.509 18.35C266 18.35 264.659 18.65 263.486 19.25C262.312 19.85 261.39 20.65 260.72 21.65C260.083 22.6167 259.764 23.6667 259.764 24.8C259.764 27.0333 260.468 28.85 261.876 30.25C263.318 31.6167 265.196 32.3 267.509 32.3Z" fill="white"/>
<path d="M298.417 27.3C298.819 28.9 299.674 30.1833 300.982 31.15C302.323 32.1167 304 32.6 306.011 32.6C309.699 32.6 312.65 31.3167 314.863 28.75L320.295 32.3C318.786 35.2333 316.774 37.3833 314.259 38.75C311.745 40.0833 308.995 40.75 306.011 40.75C303.195 40.75 300.546 40.05 298.065 38.65C295.617 37.2167 293.639 35.3 292.13 32.9C290.655 30.5 289.917 27.8833 289.917 25.05C289.917 22.25 290.655 19.65 292.13 17.25C293.639 14.85 295.634 12.95 298.115 11.55C300.596 10.1167 303.228 9.4 306.011 9.4C308.928 9.4 311.527 10.1333 313.807 11.6C316.087 13.0333 317.864 15.1 319.138 17.8C320.412 20.5 321.032 23.6667 320.999 27.3H298.417ZM306.011 17.4C304.201 17.4 302.642 17.8667 301.334 18.8C300.06 19.7333 299.155 20.9167 298.618 22.35H313.052C312.549 20.75 311.627 19.5333 310.286 18.7C308.979 17.8333 307.554 17.4 306.011 17.4Z" fill="white"/>
</svg>
