<svg width="22" height="22" viewBox="0 0 22 22" fill="none" xmlns="http://www.w3.org/2000/svg">
<mask id="mask0_682_13738" style="mask-type:luminance" maskUnits="userSpaceOnUse" x="0" y="1" width="22" height="20">
<path d="M21.0834 10.9988C21.0834 5.50252 16.5863 1.04688 11.0389 1.04688C5.49146 1.04688 0.994385 5.50252 0.994385 10.9988C0.994385 16.4951 5.49146 20.9508 11.0389 20.9508C16.5863 20.9508 21.0834 16.4951 21.0834 10.9988Z" fill="white"/>
</mask>
<g mask="url(#mask0_682_13738)">
<path d="M21.0834 10.9988C21.0834 5.50252 16.5863 1.04688 11.0389 1.04688C5.49146 1.04688 0.994385 5.50252 0.994385 10.9988C0.994385 16.4951 5.49146 20.9508 11.0389 20.9508C16.5863 20.9508 21.0834 16.4951 21.0834 10.9988Z" fill="#A6FC6F"/>
<path d="M20.2704 1.64025C21.1746 2.53611 21.6266 2.98405 21.7961 3.50056C21.9451 3.95491 21.9451 4.44433 21.7961 4.89868C21.6266 5.41519 21.1746 5.86312 20.2704 6.75899L12.8917 14.0697C11.9875 14.9655 11.5354 15.4135 11.0141 15.5813C10.5555 15.729 10.0616 15.729 9.603 15.5813C9.08168 15.4135 8.62958 14.9655 7.72538 14.0697L4.94456 11.3145C4.04036 10.4186 3.58826 9.97068 3.41888 9.45417C3.26988 8.99982 3.26988 8.5104 3.41888 8.05605C3.58826 7.53954 4.04036 7.09159 4.94456 6.19574L12.3232 -1.11496C13.2274 -2.01083 13.6795 -2.45876 14.2009 -2.62659C14.6595 -2.77421 15.1534 -2.77421 15.612 -2.62659C16.1332 -2.45876 16.5854 -2.01083 17.4896 -1.11496L20.2704 1.64025Z" fill="#7000FF"/>
<path d="M17.284 10.9674C18.1883 11.8633 18.6404 12.3112 18.8098 12.8277C18.9587 13.2821 18.9587 13.7714 18.8098 14.2258C18.6404 14.7424 18.1883 15.1902 17.284 16.0861L9.9054 23.3968C9.00121 24.2927 8.5491 24.7407 8.02778 24.9085C7.56921 25.056 7.07524 25.056 6.61667 24.9085C6.09535 24.7407 5.64326 24.2927 4.73906 23.3968L1.95823 20.6416C1.05404 19.7458 0.601938 19.2979 0.43255 18.7813C0.283551 18.3269 0.283551 17.8376 0.43255 17.3832C0.601938 16.8667 1.05404 16.4188 1.95823 15.5229L9.3369 8.21219C10.2411 7.31633 10.6932 6.86839 11.2145 6.70057C11.6731 6.55294 12.1671 6.55294 12.6256 6.70057C13.147 6.86839 13.5991 7.31633 14.5032 8.21219L17.284 10.9674Z" fill="#7000FF"/>
</g>
<path d="M20.8524 10.9997C20.8524 5.78768 16.5104 1.5625 11.1543 1.5625C5.79818 1.5625 1.45618 5.78768 1.45618 10.9997C1.45618 16.2117 5.79818 20.4369 11.1543 20.4369C16.5104 20.4369 20.8524 16.2117 20.8524 10.9997Z" stroke="#A6FC6F" stroke-width="1.81984"/>
<path d="M13.8847 7.9375C14.1873 8.0035 14.4801 8.0599 14.7675 8.13279C15.0729 8.20979 15.3755 8.30332 15.6781 8.3872C15.721 8.39958 15.7378 8.41609 15.7378 8.46422C15.7364 9.40077 15.7461 10.3387 15.7336 11.2753C15.7196 12.2819 15.399 13.1924 14.7813 13.9927C14.0929 14.8853 13.1921 15.4601 12.09 15.7215C11.6555 15.8246 11.2128 15.859 10.7672 15.8328C9.70814 15.7709 8.76985 15.401 7.96757 14.7148C7.14031 14.0093 6.61841 13.1209 6.40881 12.0564C6.34914 11.7538 6.32554 11.4472 6.32554 11.1391C6.32415 10.2521 6.32554 9.36639 6.32275 8.47934C6.32275 8.42022 6.3422 8.39958 6.39632 8.38308C6.97374 8.20017 7.56227 8.05577 8.15772 7.94849C8.16327 7.94712 8.16883 7.94849 8.1827 7.94712C8.1827 7.9705 8.1827 7.99388 8.1827 8.01588C8.1827 9.12847 8.17855 10.2424 8.18549 11.355C8.18964 11.9161 8.26599 12.4703 8.45893 13.0026C8.6116 13.4248 8.83785 13.8016 9.17515 14.1069C9.49162 14.3916 9.86221 14.5718 10.2772 14.6598C10.8644 14.7849 11.4501 14.7753 12.0261 14.5951C12.7063 14.3834 13.1781 13.935 13.4807 13.3038C13.6432 12.9668 13.7404 12.6093 13.8014 12.2421C13.8695 11.8336 13.8861 11.421 13.8861 11.0085C13.8861 10.0155 13.8861 9.0212 13.8861 8.02826C13.8847 8.00213 13.8847 7.97738 13.8847 7.9375Z" fill="white"/>
<path d="M11.8568 10.0012C11.3029 10.0012 10.7547 10.0012 10.2036 10.0012C10.2036 8.72219 10.2036 7.44457 10.2036 6.16833C10.3757 6.11469 11.5292 6.11056 11.8568 6.1642C11.8568 7.4432 11.8568 8.72219 11.8568 10.0012Z" fill="white"/>
</svg>