<svg width="136" height="136" viewBox="0 0 136 136" fill="none" xmlns="http://www.w3.org/2000/svg">
<g filter="url(#filter0_di_1719_6496)">
<rect x="24" y="8" width="88" height="88" rx="16" fill="#FF7800" shape-rendering="crispEdges"/>
<rect x="25" y="9" width="86" height="86" rx="15" stroke="white" stroke-opacity="0.24" stroke-width="2" shape-rendering="crispEdges"/>
<path fill-rule="evenodd" clip-rule="evenodd" d="M64.6135 38.9432C66.0896 36.3523 69.9108 36.3523 71.3869 38.9432L84.1737 61.3874C85.6083 63.9055 83.7411 67 80.787 67H55.2133C52.2593 67 50.392 63.9055 51.8266 61.3874L64.6135 38.9432ZM69.6667 60.3333C69.6667 61.2538 68.9205 62 68.0001 62C67.0796 62 66.3334 61.2538 66.3334 60.3333C66.3334 59.4129 67.0796 58.6667 68.0001 58.6667C68.9205 58.6667 69.6667 59.4129 69.6667 60.3333ZM69.2501 47C69.2501 46.3096 68.6904 45.75 68.0001 45.75C67.3097 45.75 66.7501 46.3096 66.7501 47V55.3333C66.7501 56.0237 67.3097 56.5833 68.0001 56.5833C68.6904 56.5833 69.2501 56.0237 69.2501 55.3333V47Z" fill="white"/>
</g>
<defs>
<filter id="filter0_di_1719_6496" x="0" y="0" width="136" height="136" filterUnits="userSpaceOnUse" color-interpolation-filters="sRGB">
<feFlood flood-opacity="0" result="BackgroundImageFix"/>
<feColorMatrix in="SourceAlpha" type="matrix" values="0 0 0 0 0 0 0 0 0 0 0 0 0 0 0 0 0 0 127 0" result="hardAlpha"/>
<feOffset dy="16"/>
<feGaussianBlur stdDeviation="12"/>
<feComposite in2="hardAlpha" operator="out"/>
<feColorMatrix type="matrix" values="0 0 0 0 1 0 0 0 0 0.470588 0 0 0 0 0 0 0 0 0.25 0"/>
<feBlend mode="normal" in2="BackgroundImageFix" result="effect1_dropShadow_1719_6496"/>
<feBlend mode="normal" in="SourceGraphic" in2="effect1_dropShadow_1719_6496" result="shape"/>
<feColorMatrix in="SourceAlpha" type="matrix" values="0 0 0 0 0 0 0 0 0 0 0 0 0 0 0 0 0 0 127 0" result="hardAlpha"/>
<feOffset/>
<feGaussianBlur stdDeviation="12"/>
<feComposite in2="hardAlpha" operator="arithmetic" k2="-1" k3="1"/>
<feColorMatrix type="matrix" values="0 0 0 0 1 0 0 0 0 1 0 0 0 0 1 0 0 0 0.4 0"/>
<feBlend mode="normal" in2="shape" result="effect2_innerShadow_1719_6496"/>
</filter>
</defs>
</svg>
