<svg width="144" height="168" viewBox="0 0 144 168" fill="none" xmlns="http://www.w3.org/2000/svg">
<g opacity="0.4" filter="url(#filter0_f_1733_20479)">
<path fill-rule="evenodd" clip-rule="evenodd" d="M81.7574 42.5147C81.0961 35.9596 72.7456 33.7045 68.9209 39.048L37.4417 83.0279C34.5304 87.0953 36.5599 92.8414 41.3667 94.1394L59.2743 98.9755L61.9196 125.192C62.5809 131.748 70.9313 134.002 74.7561 128.659L106.235 84.6793C109.147 80.6119 107.117 74.8658 102.31 73.5678L84.4029 68.7316L81.7574 42.5147Z" fill="#FFD900"/>
<path d="M43.6182 88.8466C41.9897 88.4034 41.8325 86.1371 43.3839 85.4699L55.8297 80.1179C56.9534 79.6347 58.2146 80.412 58.2999 81.6404L58.9179 90.5467C59.0029 91.775 57.8615 92.7215 56.682 92.4006L43.6182 88.8466Z" fill="#F7C100"/>
<path d="M100.657 77.9843C102.286 78.4275 102.443 80.6938 100.891 81.361L88.4456 86.713C87.3218 87.1962 86.0607 86.4189 85.9754 85.1905L85.3576 76.2842C85.2724 75.0559 86.414 74.1094 87.5935 74.4303L100.657 77.9843Z" fill="#FFEF8F"/>
</g>
<path fill-rule="evenodd" clip-rule="evenodd" d="M81.7573 26.5147C81.096 19.9596 72.7455 17.7045 68.9208 23.048L37.4416 67.0279C34.5303 71.0953 36.5598 76.8414 41.3665 78.1394L59.2742 82.9755L61.9194 109.192C62.5807 115.748 70.9312 118.002 74.756 112.659L106.235 68.6793C109.147 64.6119 107.117 58.8658 102.31 57.5678L84.4027 52.7316L81.7573 26.5147Z" fill="#FFD900"/>
<path d="M43.6182 72.8466C41.9897 72.4034 41.8325 70.1371 43.3839 69.4699L55.8297 64.1179C56.9534 63.6347 58.2146 64.412 58.2999 65.6404L58.9179 74.5467C59.0029 75.775 57.8615 76.7215 56.682 76.4006L43.6182 72.8466Z" fill="#F7C100"/>
<path d="M100.657 61.9843C102.286 62.4275 102.443 64.6938 100.891 65.361L88.4456 70.713C87.3218 71.1962 86.0607 70.4189 85.9754 69.1905L85.3576 60.2842C85.2724 59.0559 86.414 58.1094 87.5935 58.4303L100.657 61.9843Z" fill="#FFEF8F"/>
<defs>
<filter id="filter0_f_1733_20479" x="-27" y="-17" width="199" height="200" filterUnits="userSpaceOnUse" color-interpolation-filters="sRGB">
<feFlood flood-opacity="0" result="BackgroundImageFix"/>
<feBlend mode="normal" in="SourceGraphic" in2="BackgroundImageFix" result="shape"/>
<feGaussianBlur stdDeviation="18" result="effect1_foregroundBlur_1733_20479"/>
</filter>
</defs>
</svg>
